<svg width="53" height="56" viewBox="0 0 53 56" fill="none" xmlns="http://www.w3.org/2000/svg">
<path d="M42.6029 56.2154H10.3247C4.46632 56.2154 -0.288574 51.4406 -0.288574 45.5576V19.9237C-0.288574 14.0407 4.46632 9.26593 10.3247 9.26593H42.6029C48.4613 9.26593 53.2162 14.0407 53.2162 19.9237V45.5576C53.2162 51.4406 48.4613 56.2154 42.6029 56.2154Z" fill="#F9B842"/>
<path d="M42.6029 56.2154H10.3247C4.46632 56.2154 -0.288574 51.4406 -0.288574 45.5576V19.9237C-0.288574 14.0407 4.46632 9.26593 10.3247 9.26593H42.6029C48.4613 9.26593 53.2162 14.0407 53.2162 19.9237V45.5576C53.2162 51.4406 48.4613 56.2154 42.6029 56.2154Z" fill="#FFD27B"/>
<path d="M43.9824 4.94742C49.0781 4.94742 53.2163 9.49407 53.2163 15.1163V46.0465C53.2163 51.6524 48.0882 56.2154 42.9763 56.2154H31.584V4.94742H43.9824Z" fill="url(#paint0_linear_0_1)"/>
<path d="M8.94532 4.94742C3.84963 4.94742 -0.288595 9.49407 -0.288595 15.1163V46.0465C-0.288595 51.6524 4.83955 56.2154 9.95147 56.2154H21.3438V4.94742H8.94532Z" fill="url(#paint1_linear_0_1)"/>
<path d="M42.6029 46.8613H10.3247C4.46632 46.8613 -0.288574 42.0865 -0.288574 36.2036V10.5859C-0.288574 4.70299 4.46632 -0.0718079 10.3247 -0.0718079H42.6029C48.4613 -0.0718079 53.2162 4.70299 53.2162 10.5859V36.2199C53.2162 42.0865 48.4613 46.8613 42.6029 46.8613Z" fill="#FFDE32"/>
<path d="M33.0374 24.5243C32.9618 24.6018 32.6765 24.933 32.4107 25.2055C30.8523 26.9191 26.7872 29.7239 24.6595 30.58C24.3363 30.7176 23.5194 31.0088 23.0829 31.0275C22.6647 31.0275 22.266 30.9313 21.8855 30.7363C21.4112 30.4638 21.0308 30.0351 20.8223 29.5289C20.6881 29.1776 20.4796 28.1265 20.4796 28.1078C20.2712 26.9578 20.1565 25.0893 20.1565 23.0244C20.1565 21.057 20.2712 19.2646 20.4418 18.0973C20.4614 18.0786 20.6699 16.7724 20.8979 16.3249C21.3161 15.5075 22.1331 15 23.0073 15L23.0829 15C23.6523 15.02 24.8497 15.5276 24.8497 15.5463C26.8627 16.4037 30.8341 19.071 32.4302 20.8433C32.4302 20.8433 32.8797 21.2988 33.0752 21.5833C33.38 21.992 33.5312 22.4982 33.5312 23.0044C33.5312 23.5694 33.3605 24.0956 33.0374 24.5243" fill="white"/>
<defs>
<linearGradient id="paint0_linear_0_1" x1="60.2829" y1="30.5824" x2="31.5874" y2="30.5824" gradientUnits="userSpaceOnUse">
<stop stop-color="#FFBE5C"/>
<stop offset="0.84375" stop-color="#FFA90B" stop-opacity="0"/>
</linearGradient>
<linearGradient id="paint1_linear_0_1" x1="-7.35521" y1="30.5824" x2="21.3403" y2="30.5824" gradientUnits="userSpaceOnUse">
<stop stop-color="#FFBE5C"/>
<stop offset="0.84375" stop-color="#FFA90B" stop-opacity="0"/>
</linearGradient>
</defs>
</svg>
