<svg width="53" height="56" viewBox="0 0 53 56" fill="none" xmlns="http://www.w3.org/2000/svg">
<path d="M42.603 56.2154H10.3249C4.46644 56.2154 -0.288452 51.4406 -0.288452 45.5576V19.9237C-0.288452 14.0407 4.46644 9.26593 10.3249 9.26593H42.603C48.4614 9.26593 53.2163 14.0407 53.2163 19.9237V45.5576C53.2163 51.4406 48.4614 56.2154 42.603 56.2154Z" fill="#F9B842"/>
<path d="M42.603 56.2154H10.3249C4.46644 56.2154 -0.288452 51.4406 -0.288452 45.5576V19.9237C-0.288452 14.0407 4.46644 9.26593 10.3249 9.26593H42.603C48.4614 9.26593 53.2163 14.0407 53.2163 19.9237V45.5576C53.2163 51.4406 48.4614 56.2154 42.603 56.2154Z" fill="#FFD27B"/>
<path d="M43.9824 4.94742C49.0781 4.94742 53.2163 9.49407 53.2163 15.1163V46.0465C53.2163 51.6524 48.0882 56.2154 42.9763 56.2154H31.584V4.94742H43.9824Z" fill="url(#paint0_linear_0_1)"/>
<path d="M8.94544 4.94742C3.84975 4.94742 -0.288473 9.49407 -0.288473 15.1163V46.0465C-0.288473 51.6524 4.83968 56.2154 9.9516 56.2154H21.3439V4.94742H8.94544Z" fill="url(#paint1_linear_0_1)"/>
<path d="M42.603 46.8613H10.3249C4.46644 46.8613 -0.288452 42.0865 -0.288452 36.2036V10.5859C-0.288452 4.70299 4.46644 -0.0718079 10.3249 -0.0718079H42.603C48.4614 -0.0718079 53.2163 4.70299 53.2163 10.5859V36.2199C53.2163 42.0865 48.4614 46.8613 42.603 46.8613Z" fill="#FFDE32"/>
<path d="M20.6504 21.5031C20.7259 21.4257 21.0113 21.0944 21.2771 20.822C22.8354 19.1084 26.9006 16.3036 29.0283 15.4474C29.3514 15.3099 30.1684 15.0187 30.6048 15C31.0231 15 31.4218 15.0962 31.8022 15.2912C32.2765 15.5636 32.657 15.9924 32.8654 16.4986C32.9996 16.8498 33.2081 17.901 33.2081 17.9197C33.4166 19.0696 33.5312 20.9382 33.5312 23.0031C33.5312 24.9704 33.4166 26.7628 33.2459 27.9302C33.2264 27.9489 33.0179 29.2551 32.7899 29.7025C32.3716 30.5199 31.5547 31.0275 30.6804 31.0275L30.6048 31.0275C30.0355 31.0074 28.8381 30.4999 28.8381 30.4812C26.825 29.6237 22.8536 26.9565 21.2575 25.1841C21.2575 25.1841 20.808 24.7287 20.6126 24.4442C20.3077 24.0355 20.1566 23.5293 20.1566 23.0231C20.1566 22.4581 20.3272 21.9319 20.6504 21.5031" fill="white"/>
<defs>
<linearGradient id="paint0_linear_0_1" x1="60.2829" y1="30.5824" x2="31.5874" y2="30.5824" gradientUnits="userSpaceOnUse">
<stop stop-color="#FFBE5C"/>
<stop offset="0.84375" stop-color="#FFA90B" stop-opacity="0"/>
</linearGradient>
<linearGradient id="paint1_linear_0_1" x1="-7.35509" y1="30.5824" x2="21.3405" y2="30.5824" gradientUnits="userSpaceOnUse">
<stop stop-color="#FFBE5C"/>
<stop offset="0.84375" stop-color="#FFA90B" stop-opacity="0"/>
</linearGradient>
</defs>
</svg>
