<svg width="40" height="43" viewBox="0 0 53 56" fill="none" xmlns="http://www.w3.org/2000/svg">
<path d="M42.603 56.2154H10.3249C4.46644 56.2154 -0.288452 51.4406 -0.288452 45.5576V19.9237C-0.288452 14.0407 4.46644 9.26593 10.3249 9.26593H42.603C48.4614 9.26593 53.2163 14.0407 53.2163 19.9237V45.5576C53.2163 51.4406 48.4614 56.2154 42.603 56.2154Z" fill="#F9B842"/>
<path d="M42.603 56.2154H10.3249C4.46644 56.2154 -0.288452 51.4406 -0.288452 45.5576V19.9237C-0.288452 14.0407 4.46644 9.26593 10.3249 9.26593H42.603C48.4614 9.26593 53.2163 14.0407 53.2163 19.9237V45.5576C53.2163 51.4406 48.4614 56.2154 42.603 56.2154Z" fill="#FFD27B"/>
<path d="M43.9824 4.94742C49.0781 4.94742 53.2163 9.49407 53.2163 15.1163V46.0465C53.2163 51.6524 48.0882 56.2154 42.9763 56.2154H31.584V4.94742H43.9824Z" fill="url(#paint0_linear_0_1)"/>
<path d="M8.94544 4.94742C3.84975 4.94742 -0.288473 9.49407 -0.288473 15.1163V46.0465C-0.288473 51.6524 4.83968 56.2154 9.9516 56.2154H21.3439V4.94742H8.94544Z" fill="url(#paint1_linear_0_1)"/>
<path d="M42.603 46.8613H10.3249C4.46644 46.8613 -0.288452 42.0865 -0.288452 36.2036V10.5859C-0.288452 4.70299 4.46644 -0.0718079 10.3249 -0.0718079H42.603C48.4614 -0.0718079 53.2163 4.70299 53.2163 10.5859V36.2199C53.2163 42.0865 48.4614 46.8613 42.603 46.8613Z" fill="#FFDE32"/>
<path d="M25.3334 32.2432C25.2559 32.1676 24.9247 31.8823 24.6522 31.6165C22.9386 30.0581 20.1338 25.993 19.2776 23.8653C19.1401 23.5421 18.8489 22.7252 18.8302 22.2887C18.8302 21.8705 18.9264 21.4718 19.1214 21.0913C19.3938 20.617 19.8226 20.2366 20.3288 20.0281C20.68 19.8939 21.7312 19.6854 21.7499 19.6854C22.8998 19.4769 24.7684 19.3623 26.8333 19.3623C28.8006 19.3623 30.593 19.4769 31.7604 19.6476C31.7791 19.6672 33.0853 19.8756 33.5328 20.1037C34.3502 20.5219 34.8577 21.3389 34.8577 22.2131V22.2887C34.8377 22.8581 34.3301 24.0555 34.3114 24.0555C33.4539 26.0685 30.7867 30.0399 29.0143 31.636C29.0143 31.636 28.5589 32.0855 28.2744 32.281C27.8657 32.5858 27.3595 32.737 26.8533 32.737C26.2883 32.737 25.7621 32.5663 25.3334 32.2432" fill="white"/>
<defs>
<linearGradient id="paint0_linear_0_1" x1="60.2829" y1="30.5824" x2="31.5874" y2="30.5824" gradientUnits="userSpaceOnUse">
<stop stop-color="#FFBE5C"/>
<stop offset="0.84375" stop-color="#FFA90B" stop-opacity="0"/>
</linearGradient>
<linearGradient id="paint1_linear_0_1" x1="-7.35509" y1="30.5824" x2="21.3405" y2="30.5824" gradientUnits="userSpaceOnUse">
<stop stop-color="#FFBE5C"/>
<stop offset="0.84375" stop-color="#FFA90B" stop-opacity="0"/>
</linearGradient>
</defs>
</svg>
