<svg width="40" height="43" viewBox="0 0 53 56" fill="none" xmlns="http://www.w3.org/2000/svg">
<path d="M42.603 56.2154H10.3249C4.46644 56.2154 -0.288452 51.4406 -0.288452 45.5576V19.9237C-0.288452 14.0407 4.46644 9.26593 10.3249 9.26593H42.603C48.4614 9.26593 53.2163 14.0407 53.2163 19.9237V45.5576C53.2163 51.4406 48.4614 56.2154 42.603 56.2154Z" fill="#F9B842"/>
<path d="M42.603 56.2154H10.3249C4.46644 56.2154 -0.288452 51.4406 -0.288452 45.5576V19.9237C-0.288452 14.0407 4.46644 9.26593 10.3249 9.26593H42.603C48.4614 9.26593 53.2163 14.0407 53.2163 19.9237V45.5576C53.2163 51.4406 48.4614 56.2154 42.603 56.2154Z" fill="#FFD27B"/>
<path d="M43.9824 4.94742C49.0781 4.94742 53.2163 9.49407 53.2163 15.1163V46.0465C53.2163 51.6524 48.0882 56.2154 42.9763 56.2154H31.584V4.94742H43.9824Z" fill="url(#paint0_linear_0_1)"/>
<path d="M8.94544 4.94742C3.84975 4.94742 -0.288473 9.49407 -0.288473 15.1163V46.0465C-0.288473 51.6524 4.83968 56.2154 9.9516 56.2154H21.3439V4.94742H8.94544Z" fill="url(#paint1_linear_0_1)"/>
<path d="M42.603 46.8613H10.3249C4.46644 46.8613 -0.288452 42.0865 -0.288452 36.2036V10.5859C-0.288452 4.70299 4.46644 -0.0718079 10.3249 -0.0718079H42.603C48.4614 -0.0718079 53.2163 4.70299 53.2163 10.5859V36.2199C53.2163 42.0865 48.4614 46.8613 42.603 46.8613Z" fill="#FFDE32"/>
<path d="M26.8439 33.376C27.1081 33.376 27.3663 33.2976 27.5859 33.1506C27.8056 33.0037 27.9768 32.7948 28.0779 32.5504C28.179 32.306 28.2054 32.0371 28.1539 31.7776C28.1023 31.5182 27.9751 31.2799 27.7883 31.0928C27.6016 30.9058 27.3636 30.7784 27.1045 30.7268C26.8454 30.6752 26.5768 30.7017 26.3328 30.8029C26.0887 30.9041 25.8801 31.0755 25.7334 31.2955C25.5866 31.5154 25.5083 31.774 25.5083 32.0385C25.5083 32.3933 25.649 32.7335 25.8995 32.9843C26.15 33.2351 26.4897 33.376 26.8439 33.376ZM33.522 33.376C33.7862 33.376 34.0444 33.2976 34.2641 33.1506C34.4837 33.0037 34.6549 32.7948 34.756 32.5504C34.8571 32.306 34.8835 32.0371 34.832 31.7776C34.7805 31.5182 34.6533 31.2799 34.4665 31.0928C34.2797 30.9058 34.0417 30.7784 33.7826 30.7268C33.5235 30.6752 33.255 30.7017 33.0109 30.8029C32.7669 30.9041 32.5583 31.0755 32.4115 31.2955C32.2647 31.5154 32.1864 31.774 32.1864 32.0385C32.1864 32.3933 32.3271 32.7335 32.5776 32.9843C32.8281 33.2351 33.1678 33.376 33.522 33.376ZM33.522 28.0261C33.7862 28.0261 34.0444 27.9477 34.2641 27.8007C34.4837 27.6538 34.6549 27.4449 34.756 27.2005C34.8571 26.9561 34.8835 26.6872 34.832 26.4277C34.7805 26.1683 34.6533 25.93 34.4665 25.7429C34.2797 25.5559 34.0417 25.4285 33.7826 25.3769C33.5235 25.3253 33.255 25.3518 33.0109 25.453C32.7669 25.5542 32.5583 25.7257 32.4115 25.9456C32.2647 26.1656 32.1864 26.4241 32.1864 26.6887C32.1864 27.0434 32.3271 27.3836 32.5776 27.6344C32.8281 27.8852 33.1678 28.0261 33.522 28.0261ZM26.8439 28.0261C27.1081 28.0261 27.3663 27.9477 27.5859 27.8007C27.8056 27.6538 27.9768 27.4449 28.0779 27.2005C28.179 26.9561 28.2054 26.6872 28.1539 26.4277C28.1023 26.1683 27.9751 25.93 27.7883 25.7429C27.6016 25.5559 27.3636 25.4285 27.1045 25.3769C26.8454 25.3253 26.5768 25.3518 26.3328 25.453C26.0887 25.5542 25.8801 25.7257 25.7334 25.9456C25.5866 26.1656 25.5083 26.4241 25.5083 26.6887C25.5083 27.0434 25.649 27.3836 25.8995 27.6344C26.15 27.8852 26.4897 28.0261 26.8439 28.0261ZM36.1933 11.9765H34.8577V10.639C34.8577 10.2843 34.7169 9.94413 34.4665 9.69331C34.216 9.44249 33.8763 9.30157 33.522 9.30157C33.1678 9.30157 32.8281 9.44249 32.5776 9.69331C32.3271 9.94413 32.1864 10.2843 32.1864 10.639V11.9765H21.5014V10.639C21.5014 10.2843 21.3607 9.94413 21.1102 9.69331C20.8597 9.44249 20.52 9.30157 20.1658 9.30157C19.8116 9.30157 19.4718 9.44249 19.2214 9.69331C18.9709 9.94413 18.8302 10.2843 18.8302 10.639V11.9765H17.4945C16.4319 11.9765 15.4127 12.3992 14.6613 13.1517C13.9098 13.9042 13.4877 14.9248 13.4877 15.9889V34.7135C13.4877 35.7776 13.9098 36.7982 14.6613 37.5507C15.4127 38.3032 16.4319 38.7259 17.4945 38.7259H36.1933C37.256 38.7259 38.2751 38.3032 39.0266 37.5507C39.778 36.7982 40.2002 35.7776 40.2002 34.7135V15.9889C40.2002 14.9248 39.778 13.9042 39.0266 13.1517C38.2751 12.3992 37.256 11.9765 36.1933 11.9765ZM37.5289 34.7135C37.5289 35.0682 37.3882 35.4084 37.1377 35.6592C36.8872 35.91 36.5475 36.051 36.1933 36.051H17.4945C17.1403 36.051 16.8006 35.91 16.5501 35.6592C16.2996 35.4084 16.1589 35.0682 16.1589 34.7135V22.6763H37.5289V34.7135ZM37.5289 20.0013H16.1589V15.9889C16.1589 15.6342 16.2996 15.294 16.5501 15.0432C16.8006 14.7924 17.1403 14.6515 17.4945 14.6515H18.8302V15.9889C18.8302 16.3436 18.9709 16.6838 19.2214 16.9347C19.4718 17.1855 19.8116 17.3264 20.1658 17.3264C20.52 17.3264 20.8597 17.1855 21.1102 16.9347C21.3607 16.6838 21.5014 16.3436 21.5014 15.9889V14.6515H32.1864V15.9889C32.1864 16.3436 32.3271 16.6838 32.5776 16.9347C32.8281 17.1855 33.1678 17.3264 33.522 17.3264C33.8763 17.3264 34.216 17.1855 34.4665 16.9347C34.7169 16.6838 34.8577 16.3436 34.8577 15.9889V14.6515H36.1933C36.5475 14.6515 36.8872 14.7924 37.1377 15.0432C37.3882 15.294 37.5289 15.6342 37.5289 15.9889V20.0013ZM20.1658 28.0261C20.43 28.0261 20.6882 27.9477 20.9078 27.8007C21.1275 27.6538 21.2987 27.4449 21.3997 27.2005C21.5008 26.9561 21.5273 26.6872 21.4758 26.4277C21.4242 26.1683 21.297 25.93 21.1102 25.7429C20.9234 25.5559 20.6854 25.4285 20.4264 25.3769C20.1673 25.3253 19.8987 25.3518 19.6547 25.453C19.4106 25.5542 19.202 25.7257 19.0553 25.9456C18.9085 26.1656 18.8302 26.4241 18.8302 26.6887C18.8302 27.0434 18.9709 27.3836 19.2214 27.6344C19.4718 27.8852 19.8116 28.0261 20.1658 28.0261ZM20.1658 33.376C20.43 33.376 20.6882 33.2976 20.9078 33.1506C21.1275 33.0037 21.2987 32.7948 21.3997 32.5504C21.5008 32.306 21.5273 32.0371 21.4758 31.7776C21.4242 31.5182 21.297 31.2799 21.1102 31.0928C20.9234 30.9058 20.6854 30.7784 20.4264 30.7268C20.1673 30.6752 19.8987 30.7017 19.6547 30.8029C19.4106 30.9041 19.202 31.0755 19.0553 31.2955C18.9085 31.5154 18.8302 31.774 18.8302 32.0385C18.8302 32.3933 18.9709 32.7335 19.2214 32.9843C19.4718 33.2351 19.8116 33.376 20.1658 33.376Z" fill="white"/>
<defs>
<linearGradient id="paint0_linear_0_1" x1="60.2829" y1="30.5824" x2="31.5874" y2="30.5824" gradientUnits="userSpaceOnUse">
<stop stop-color="#FFBE5C"/>
<stop offset="0.84375" stop-color="#FFA90B" stop-opacity="0"/>
</linearGradient>
<linearGradient id="paint1_linear_0_1" x1="-7.35509" y1="30.5824" x2="21.3405" y2="30.5824" gradientUnits="userSpaceOnUse">
<stop stop-color="#FFBE5C"/>
<stop offset="0.84375" stop-color="#FFA90B" stop-opacity="0"/>
</linearGradient>
</defs>
</svg>
